<svg xmlns="http://www.w3.org/2000/svg" viewBox="0 0 581.61 210.67"><g id="图层_2" data-name="图层 2"><g id="图层_1-2" data-name="图层 1"><path d="M162,90.82l-.81,2.58,3.52-3.52c1.35,2.11-.81,3.52-1.35,5.4-3.79,9.14-7.85,18.06-11.09,27.21-2.43,6.09-4.87,11.72-6.22,18.06-.54,3.75-2.7,7.5-3.78,11-1.08,3.76-1.36,7.74-2.44,11.26-2.7,8.68-6,17.6-8.65,26.27-1.35,3.76-4.32,7-7.3,10.09-1.89,1.64-5.14,1.64-7.57.71-3.78-1.41-7.57-2.82-9.19-6.57,0-.24-.54-.47-.81-.71-4.87-3.52-7-8.21-6.22-13.84a14,14,0,0,0-1.35-4.45c-1.9-4-4.33-8-4.6-12.67-.27-3-1.89-6.1-3-9.15-1.36-4.46-2.17-8.91-3.52-13.13-1.62-4-1.35-8.45-2.16-12.67a6.87,6.87,0,0,0,0-2.35c-3-8.44-3-16.89-3.25-25.33a18.64,18.64,0,0,0-.81-3.75c-1.62-2.82-1.62-5.87-1.89-8.92-.81-5.63-1.89-11.26-2.7-16.89l-1.63-12.2c0-.46-.54-.93-.81-1.4l-1.08,1.4-8.65,22c-1.35,3.52-2.43,6.57-4.06,9.86-2.7,5.63-4.32,11.49-5.94,17.12-.81,3.75-3,6.8-4.6,10.32,0,.47-.81.71-.54,1.17.54,4.23-1.89,7.75-3,11.73s-3.25,7.74-4.6,11.73l-8.11,24.16c-2.16,8-4.87,16-7.3,23.93a173.19,173.19,0,0,0-4.06,16.89c-.81,4-4.05,5.63-8.11,3.52a69,69,0,0,1-8.11-6.57c-1.08-.7-1.62-2.35-3-2.82-3-.93-3.52-2.81-3.25-5.16,0-2.58.81-4.45,3.52-5.63,1.62-.47,3.78-1.17.54-2.81-.27,0,0-.94,0-1.41l3.24-5.86c.27-1.18.27-2.35.54-3.52.54-1.88.81-.47,1.62,0,.55.47,2.17.23,3.25,0,.27,0,.54-.71.54-1.17s-.81-.71-1.08-.94c-1.08-.71-2.71-1.41-2.71-2.11,0-.94.82-2.12,1.36-3.29a21.19,21.19,0,0,0,1.35-2.58h.27c1.35-1.64,4.05-2.81,1.35-5.39-.81-.71.27-2.11,1.89-2.35,1.63-.47,1.63-.94.81-2.35-1.62-2.81.82-4.69,2.44-6.8h1.62a.24.24,0,0,1,.27-.23,2.25,2.25,0,0,0-1.08-.24,1.5,1.5,0,0,0-1.08.47c.81-3.52,1.35-7,1.89-10.32h-.27a13.41,13.41,0,0,0,2.7-4c.54-1.4,1.08-2.34,3-2.11.27,0,.81-.7.81-.94A10.13,10.13,0,0,0,25.75,130c-1.08-1.17-.54-1.87.27-2.58,1.35-.94,2.7-1.41,3.78-2.34,1.35-1.41.81-1.65-1.08-.94,0-.71-.27-1.41-.27-1.88.81-2.81,1.62-5.63.81-8.44,3.52-2.82,3.79-7.27,5.68-11,1.35-3,2.16-6.33,3.51-9.38.54-1.17.54-2.11-1.35-2.35-.27,0-.81-.94-.54-1.4.27-.94.54-2.12,1.35-2.35,3.52-1.64,3.52-4.69,4.87-7.27a6.34,6.34,0,0,0-.27-2.35c-1.08-.94-.27-1.87,0-3.05.81-2.58,1.08-5.63,4.06-7.74A5.71,5.71,0,0,0,47.38,65c-.54-2.35,1.35-4.23,1.89-6.57A111.48,111.48,0,0,1,51.7,44.84c1.08-4.45,2.71-8.91,4.06-13.13a55.94,55.94,0,0,0,1.62-8.92c.54-2.81,1.08-3.28,4.6-2.34,4.86,1.64,10,3.75,14.87,5.16,2.43.94,4.59,1.64,6.76,2.58,5.67,2.34,10,5.39,11.08,11.49,1.35,7.51,3.52,15,3,23.22,3,8.45,1.62,17.6,2.7,26.28,1.08,8.21,3,16.18,3,24.39,0,3.29,1.36,6.57,1.9,9.39.81,5.39,1.35,10.79,2.43,16.18A144.16,144.16,0,0,0,112,153.45a2.71,2.71,0,0,0,1.9.23c2.7-3.75,6-7.74,7.3-12a31.25,31.25,0,0,1,4-10.79c2.17-3.28,2.71-7.27,4.6-10.55a57.9,57.9,0,0,0,4.6-12.91V107c.54-1.4,1.35-3,3.51-2.58,1.35.24,2.43,3,1.62,4.46-1.89,2.58-3.24,4.93-3.24,8a2,2,0,0,1-1.08,1.64c-3.79,1.17-3.25,3.75-3.52,6.57-1.35.23-2.43,1.17-1.89,2.34,1.08,2.82,0,5.16-.81,7.74-1.35,4.46-2.43,8.92-3.79,13.37-1.08,3-2.16,6.1-3,9.15-.54,1.64.81,1.88,2.16,1.88a12,12,0,0,0-1.89,1.64c-.54.23-1.89.7-.54,1.64a2.66,2.66,0,0,0,2.16-.7c.54-.71.27-1.64.27-2.58a60.4,60.4,0,0,1,4.6-8c.81-1.4,1.89-1.4,2.7,0,.54,1.88,1.35,2.11,2.44.24a6.25,6.25,0,0,0,1.89-3.05c1.35-3.52,2.43-7,3.51-10.56.54-.94.81-1.87,1.63-2.34,2.7-1.88,3.78-3.76,3-6.57-.27-.47,0-1.17,0-1.41,3.24-3.28,2.7-7.27,4.87-11,2.16-3.52,3-7.28,4.05-11.26,1.08-4.46,3.52-8.68,5.41-13.14C159,91.05,160.12,90.35,162,90.82ZM39,118.26a3.72,3.72,0,0,1-1.08-.7c-1.62-.7-3.51.23-3.51,1.64a.54.54,0,0,0,.54.47A22,22,0,0,0,39,118.26Zm92.2,27a24.49,24.49,0,0,1,3.52-4.93,1.85,1.85,0,0,1,1.08-.23c.27.23.27.7.54,1.17a47.07,47.07,0,0,0-3,4.93l-1.62,2.11C131.46,147.35,130.92,145.94,131.19,145.24Zm.54-19.94v-.23H132l.54.7Zm1.08,1.17-.27-.7c0,.23.27.23.27.47Zm2.71,7.74a6.6,6.6,0,0,0-1.35-.7c.54-.47.54-.7.81-.94a3.72,3.72,0,0,1,1.08.71A1.68,1.68,0,0,1,135.52,134.21ZM138,102.55a2.58,2.58,0,0,1-.54-2.11c1.08-2.58,2.43-4.93,3.79-7.51,1.08-2.35,2.16-5.16,3.24-8a4.52,4.52,0,0,1,1.08-1.87,4.87,4.87,0,0,1,1.89-.94,6.84,6.84,0,0,1,1.36,1.41c.27.47,0,1.17,0,1.64-1.63,3.52-.82,7.74-4.33,10.79A15.76,15.76,0,0,0,142,99.26a2.83,2.83,0,0,0-.54,2.11c.27.94,2.16,1.65.27,2.12C140.92,103.72,139.3,102.78,138,102.55Zm6.22,14.54.54-1.64h.81a6.09,6.09,0,0,1-.54,2.11Zm3.51-8.68,1.9-4.45c.27-.24.81-.47,1.08-.24.27,0,.27.47.54.94-.54,1.17-1.35,2.81-2.16,4.22a6.59,6.59,0,0,1-1.36,1.41C147.68,109.58,147.41,108.88,147.68,108.41Zm2.17-33.54c.54-1.41,1.62-2.11,3.51-1.41a13.11,13.11,0,0,1,2.16.47c-1.89,1.41-2.7,3-4.32,3.52C150.39,77.68,149.31,76.51,149.85,74.87Zm3.24-8.68c-.54-.47,1.08-1.88,1.08-2.58,0-2.82,1.62-4.46,2.71-6.57,1.89-3.28,3.24-6.57,4.86-10.09a9.16,9.16,0,0,1,1.36-2.11c0-.23.54-.23.81-.23s.54.47.81.94l-2.44,6.8c-.27.47-1.08.7-1.08,1.17.27,1.64,3.52,3.75-.54,5.16-.54,2.11-.54,4.22-1.08,5.87-.27,1.4-.81,3.51-3,1.17-.27-.24-.82-.47-1.09-.24C155,66,154.17,67.83,153.09,66.19Zm6.49,16.89.54.47-3.24,6.1a1.45,1.45,0,0,1-.81-.24c1.08-2.11,1.89-4.22,3-6.33Zm1.62,10.55-.54.71-.81,1.4a.89.89,0,0,1,.54.24l.81-1.64Zm4.33-14.54v.23c.54,2.12,0,4-1.35,6.1A21.22,21.22,0,0,0,162,90.58c-1.35-4.22,1.09-7.74,3.52-11.26Zm-2.16-5.4,1.62-1.4c.27.23.54.94.27,1.17A17,17,0,0,0,163.64,76C163.37,74.4,163.1,73.93,163.37,73.69ZM164.45,43a2.16,2.16,0,0,0-.27-.71,7.24,7.24,0,0,1,1.89-.94c0-.23.27.24.81.71A10.58,10.58,0,0,1,164.45,43ZM205.54,23a38.31,38.31,0,0,1-4.32,4.69,97,97,0,0,0-17.31,22.52,121.62,121.62,0,0,0-5.67,11.49c-2.17,4.93-4.87,10.09-7.3,15.25a30.82,30.82,0,0,1-1.63,4.46c-.27.7-1.08,1.17-1.62,1.64a4.57,4.57,0,0,1-.27-1.88c.54-1.64-.54-1.88-1.89-2.11a32.2,32.2,0,0,0,1.62-4.69c.27-.47,1.08-.94,1.35.23l.81,1.41.81-1.17c0-1.41,1.36-3.05-.81-4.69-.54-.47.27-1.88.27-3.05l.81-3.52c.28-.47.28-.94.55-1.17.27-.47.27-.94.54-1.41a.25.25,0,0,0-.27-.24l-.82,1.65v1.17c-1.35,0-3.51.47-2.43-1.88a78.11,78.11,0,0,1,4.6-9.15c.54-.94,1.08-1.87,2.43-.7a4.33,4.33,0,0,0,1.62-.47c1.63-2.58,3.79-5.16,5.41-7.74a68.91,68.91,0,0,0,3.52-7.51c-3.25,1.41-4.6,4.23-5.95,6.81-.81,1.17-1.62,3.75-3.52,2.81-1.62-.7.81-2.58,1.63-3.75,3-4.93,6.21-9.39,9.19-14.08a12.77,12.77,0,0,0,.81-3.05,20,20,0,0,0-2.43,1.88c-1.36,2.81-4.33,1.88-6.49,2.81-.27.24-.81-.46-.81-.7-.27-.23-.27-.7-.55-.94-.27.24-.54.47-.54.71-.27.93-.81,1.64-.54,2.34.54,1.88-.54,3.29-1.62,4.46-.54.7-1.08,2.58-1.89,2.58-1.62.23-3.25-.7-5.14,0-.27-.47-.81-1.17-.54-1.41a156,156,0,0,1,9.46-13.37c1.36-2.11,3-3.75,3.79-6.33.54-1.18,1.89-2.11,2.43-3.52,1.08-1.88,2.44-3.05,4.87-2.58a26.94,26.94,0,0,1,6.49,3.05c1.08.47-1.62,2.34.81,2.81.81.24,2.16-.94,3.24-1.17,2.44-.47,7.3,2.11,7.84,4.46A4.15,4.15,0,0,1,205.54,23Zm-39.2,62.86c0,.24.54.47.54.71s-.54.23-.54.47c-.27-.24-.81-.24-.54-.47C165.8,86.36,166.07,86.13,166.34,85.89Z"/><path d="M362.36,111.7c-1.35,2.11-3.78,2.34-5.95,2.81-7.3,0-14.06,1.41-20.81.94-2.44-.24-5.41-.7-7.85-.7a2.47,2.47,0,0,0-2.7.7,2.38,2.38,0,0,0,.54,2.58c2.43,1.17,6.49.94,9.74,2.58,0,1.88-1.09,3-3.25,3-2.43-.7-4.87.23-8.11.23-.81,3.52-2.43,6.81-3,10.56a237.19,237.19,0,0,0-4.6,25.33c-1.08,4.69-1.08,9.85-1.89,14.55-1.63,4.22-1.63,8.44-1.9,12.9,0,1.41.27,2.58.27,4,0,3.05-1.89,4.22-5.67,4.22a27.81,27.81,0,0,1-4.33-.24,9.2,9.2,0,0,0-7,0c-3.51-2.11-5.14-5.16-5.14-8.21-.54-10.08-.81-20.4.81-30.49a5,5,0,0,1,2.17-4.46v-1.17s.54.7.54-.24c-.27,0-.27.24-.54.24a3,3,0,0,1-1.62-3.75c.54-3.29,1.62-6.57,2.16-9.86.27-.7.54-1.87,2.16-2.11,1.62-.47.54-1.87,1.62-3.05,0-.93-1.62-.47-2.16-1.4-.27-.71-.27-1.65-1.62-2.12-3.52,1.41-6.49,1.65-10.55,1.65-2.7,0-6.21.94-9.73,1.4-7.57.94-15.41,1.65-23.52,2.82-2.16,0-4.06.7-4.6,2.58-5.4,7.74-10.27,15.48-15.68,23.46a147.1,147.1,0,0,1-8.92,15c-2.71,4.93-4.87,9.62-7,14.31a67.3,67.3,0,0,0-7,14.78c-.27,1.64-1.35,3-4.33,3a40.86,40.86,0,0,0-4.32.47c-2.17.7-3.79,0-6-.24a29.92,29.92,0,0,1-12.44-5.16c-2.43-1.88-3-4.22-4.59-6.8a3.63,3.63,0,0,1,1.62-3.52c2.43-4.22,4.86-8,7-12.67a7.6,7.6,0,0,1,2.16-2.58c3.25-1.88,5.68-4.69,6.22-8,.81-.24.81-.24.81-.94,4.6-4.93,7.3-10.79,11.36-16.19,1.62-1.17,2.43-2.34,5.4-2.11,0-.94-.81-1.88.27-2.81,3-.47,6-1.88,6.76-5.16-3.78-.71-2.7,3.28-5.95,3.28-.54-1.41,1.9-3.28,0-4.69a123.3,123.3,0,0,1-13.51,2.81c-1.09.47-1.36,0-1.63.47-4.86,3.29-9.73.71-14.06-1.87l-4.86-4c.27-2.58-.54-5.87.27-8.68,0-.71-.27-1.17-.27-1.88-2.44-4.92-1.35-9.38,3.78-12.9a5.86,5.86,0,0,1,5.41-.94,68.53,68.53,0,0,0,20.82,0,107,107,0,0,1,14.6-1.4c3.51,0,7,0,10-.24a15.15,15.15,0,0,1,4.6,0c3.51.94,5.14.7,6.22-1.88,2.16-2.81,5.13-5.39,7.3-8.21l19.73-26c5.14-5.87,9.74-11,14.06-16.66L304,35.22c.81-1.87,3-3.75,5.14-4.92,3.24-1.88,3.78-4.46,3.78-7.27.27-1.65.55-3.29-.27-4.46a57.67,57.67,0,0,0-5.67,3.52A10.59,10.59,0,0,1,304,24c-1.62.7-3.51,1.87-3.51,4,0,.71-.27,1.41-1.62,1.64-3,3.76-5.14,7.75-8.93,11.73a4.39,4.39,0,0,1-3.78,2.58c0-.93-.27-2.34.27-2.81,3-1.64,3.24-4.22,5.13-5.4,4.87-4.22,6.22-9.61,9.2-14.54,2.16-3.28,3.78-6.8,6.49-9.15C309.1,10.59,311,9,309.37,6.61c-.27-.47,0-1.41,0-2.35C310.45,0,311.53-.67,317.21.51c4.6,1.17,10,3.05,15.14,4.92,3.79,1.41,8.11,3.29,9.19,7.74a3.68,3.68,0,0,1,.27,2.58c-1.08,3.05-.27,6.81-1.35,10.09-1.89,4.93-2.43,10.09-3,15.25-1.62,6.33-2.16,12.67-3.25,19-1.08,5.63-1.89,11.73-2.7,17.12-1.62,7.27-2.43,14.55-4.33,21.82a69.77,69.77,0,0,0-.27,7.74c4.6.7,8.66,1.17,13.25,1.64,6.22,0,12.17.71,18.12.71C360.47,109.35,361.28,109.82,362.36,111.7Zm-123.83-6.34c1.35,1.18.81,1.41-.27,2.11a1.36,1.36,0,0,1,.27-2.11Zm7.57-10.79c0,4.69-.54,5.63-4.59,8.21.27-1.87,3-6.8,4.59-8.21Zm1.62-1.88c.28,1.18-1.35,1.18-1.62,1.88a1.64,1.64,0,0,1,1.62-1.87Zm7-8.91c-.27.24-.27.24-.54,0a1.66,1.66,0,0,1,.54-1.17c0,.23.27.23.27.7,0,0,0,.47-.27.47Zm6.76-8.21c-.54-.94.82-.94.82-1.41C262.33,74.63,261.51,74.87,261.51,75.57Zm34.34,37.06h-3.24c-1.9,0-3.25,0-4.6-1.64-.27.94.27,1.64-.81,2.58a119.48,119.48,0,0,0-25.69,2.82c12.17.23,24.34.23,36.77.7C298.83,113.81,298.55,113.57,295.85,112.63Zm11.09-64c4.05-4.46,4.59-9.15,4.05-14.55-.81.24-1.62.24-1.62.71-4.06,4-6.49,8.67-9.46,13.13-1.08.71-1.08,1.41,0,2.11-1.63-.7-2.17-.47-3.25.47-.81.94-2.16,2.58-2.16,3.76A22.21,22.21,0,0,0,299.91,50c1.89.71.81,2.11.27,3.76a6.61,6.61,0,0,0-2.44,3.75,3.49,3.49,0,0,1,2.71-.7c.27,2.81-2.71,4.45-2.71,7.27-3.78,2.81-5.67,6.57-8.38,10.08-3.24,4.23-7,7.74-9.46,12.2-4.33,7.27-10.28,13.61-14.6,21.11-.27.94-.81,1.18-.27,2.58,2.43.24,4.59,1.65,8.11,1.18a58.73,58.73,0,0,1,6.76-.24,19.89,19.89,0,0,0,3.78,0c2.71-1.64,5.95-1.64,8.66-1.17a14,14,0,0,0,7.57-1.17c1.08-2.82,1.08-6.1,1.89-9.15,1.08-6.57,2.7-13.14,3-20.18,1.35-7.5,2.44-15.24,4.06-22.75.54-2.81,1.35-6.1.54-9.62v.47ZM265.3,68.53c1.62-2.81,3.51-4.69,5.95-5.39C271,65.72,269.35,67.36,265.3,68.53Zm6.22-7a1.59,1.59,0,0,1-.27,1.64,4,4,0,0,1,.27-1.64Zm3.78-4c3.79-6.33,4.06-7,7-8.21C281.52,51.88,279.36,54.69,275.3,57.51ZM286.12,43.9c0,1.41,0,2.58-1.9,3.05C283.41,45.31,285.58,44.61,286.12,43.9ZM288,62.2c.54-.23,1.62-.23,1.62-.7.27-.24.54-.47,0-.94C288.55,60.56,288.28,61.26,288,62.2Zm4.06-4.69c.54-.7,1.62-1.41,1.62-2.58C292.34,55.87,291.8,56.1,292.07,57.51Zm3.78,81.87a5.51,5.51,0,0,0,0,3C296.39,140.78,296.39,140.08,295.85,139.38Zm9.46-88c0,.47-.54.47-.81.47a1,1,0,0,1,0-1.17,1.27,1.27,0,0,1,.81-.24C306.12,50.71,306.12,51.18,305.31,51.41Z"/><path d="M581.09,19.51c0,1.64-.27,1.87-1.89,2.11l-7,.47c-1.08.23-3,.23-4.59.47a41,41,0,0,0-5.41.47c-1.63,0-2.71.23-4.06.23-.54.24-1.35,0-1.62.94,0,.23-1.35.7-1.62.7-1.63-.47-3.25.24-4.87.24-1.89,0-4,.23-6,.23-.54,0-1.08-.23-.27-.7V24.2h-.54c-.81.23-1.62.7-2.43.94-1.08.47-1.62.94-2.44.23l-.54-.23c-4.59,1.41-8.65,1.17-12.7,1.41h-.54a.8.8,0,0,0,.27-.71c1.08-.7.81-.94-.27-.94-1.63-.23-3,.47-4.33.94-4.33,1.88-8.92,1.88-13.52,1.88-.81,0-1.62.23-1.62-.71,0,0-.54-.23-.81,0-1.62,1.88-4.06,1.18-6.22,1.41a8.37,8.37,0,0,1-2.43.24,16.5,16.5,0,0,1-7.57,0c-.81-.71-4.06.7-4.6,1.87l-.81,2.82c0,.7,0,.94-.81,1.64a12.56,12.56,0,0,0-2.44,3.52l-4.32,8.68a93.63,93.63,0,0,0-4.87,8.68l-2.43,5.39c-1.08,2.11-1.89,4.69-3.25,6.8l-1.62,4.46a30.39,30.39,0,0,1-2.7,4.93c-1.08,3-2.71,5.63-3.79,8.68a45.52,45.52,0,0,1-3,7.74,12.17,12.17,0,0,0-1.89,4.22c-.27,1.17-1.36,1.64-1.9,2.82,0,.7-1.62,1.87.27,2.81.27,0,0,1.17-.27,1.64h-.81a4,4,0,0,0-1.08.94c-.27.94-6.76,15.72-5.68,16.89a1.31,1.31,0,0,1,0,1.41l-2.7,5.86c-1.08,2.35-1.35,4.46-2.16,6.1s-1.36,3.52-3,4.46l-.27.23c1.08,1.41-.81,2.11-1.08,3.52,0,.94-.81,2.11-1.08,3.28-.27,2.35-2.16,4.23-3,6.57-1.35,3.76-3.51,7-4.59,10.79a100.23,100.23,0,0,1-4.6,9.15l-1.35,4a51.08,51.08,0,0,0-4.6,11.49L412.38,195c-.27.23,0,.7-.27.94-1.89,1.64-2.16,4-3.24,6.33-1.35,2.11-3.52,3-5.68,3.75-1.89.71-3.79.71-5.68,1.18h-.81c-3.24.23-6.49-.24-9.19-2.35-.81-.7-1.89-1.41-1.89-2.34a2.28,2.28,0,0,0-.27-1.18,3.63,3.63,0,0,1-.55-3.28l1.63-3.52.81-2.35,1.62-4c1.08-3,1.89-6.1,3-8.92l4.33-9.85c2.16-4.46,4.06-8.91,6.22-13.14.81-2.11,2.16-4,2.16-6.56,1.62-1.41,2.16-3,3-4.93,2.7-5.16,4.86-10.32,7-15.48,1.35-3.29,2.7-5.63,9.46-22.75,3-6.57,5.68-13.14,8.38-19.71l7-15.72,5.14-12.19c2.16-4.93,4.59-9.39,6.76-14.31a66.72,66.72,0,0,0,3.24-6.1c.54-1.64,1.62-3.29,2.16-4.93.27-.47,0-.94-.54-.7-2.16.23-4.59-.7-6.76.23-.27,0-.27,0-.27-.23l.27-.47c.27,0,.27,0,.54-.23a1.49,1.49,0,0,0,.81-.47H450a6.13,6.13,0,0,0-1.89.23,2.4,2.4,0,0,0-1.35.7c0,.94-1.08.71-1.89.94-3,.24-6.22.71-8.93.71-3.24,0-5.67.93-8.65,1.17a66.24,66.24,0,0,0-9.19,1.17L410.22,38a87.83,87.83,0,0,1-11.09.7,54.66,54.66,0,0,0-6.21.71H391c-2.43.23-4.32.23-6.49.47s-4.32.23-6.21.47c-1.36,0-2.17.46-3.52.46-2.16.47-4.6.94-7-.46A11.46,11.46,0,0,1,365.88,39c-2.16-2.11-4.06-4.93-2.43-8.21a10,10,0,0,0,.27-2.82,15,15,0,0,1,1.08-5.86c0-.71.81-1.41.81-2.58,0-1.88,2.43-3.05,4.86-2.58a39.88,39.88,0,0,0,13,.94c3-.24,6.22-.47,9.19-.47,1.09,0,2.44.47,3.79.47a2.63,2.63,0,0,0,1.35,0,3.65,3.65,0,0,0-.54-1.18c4.87-.23,9.73-.94,14.87-1.4l16.76-1.88c6.49-.94,13.25-1.64,19.74-2.35l14.06-1.4L474,9c3-.47,6.49-.7,9.73-1.17,7.3-.47,14.6-.94,21.63-1.64,3.78-.24,7.3-.71,10.54-.71,3.25-.23,5.68-.23,8.66-.47l20.54-1.17c.82,0,1.9-.23,3-.23,1.35,0,2.43,0,3.51-1.18.54-.7,2.17-.7,3.25-.93a25,25,0,0,1,16.49,1.64,29.17,29.17,0,0,1,7.57,5.63,3.27,3.27,0,0,1,.81.94c.54.7.27,1.17-1.08,1.17h-1.08c-.27.23-1.35.23-1.62.47-.27.94,1.08,1.17,1.35,1.41a6.56,6.56,0,0,0,2.16,1.4c1.35.47,2.16.94,1.35,2.35a.79.79,0,0,0,.27.7c.54.71.81,1.41,0,2.11C580.82,19.27,581.09,19.51,581.09,19.51Zm-166.54,141-.28-.24v.47C414.27,160.49,414.55,160.49,414.55,160.49Zm2.7-6.1c0-.24-.27-.47-.27-.71,0,.24-.27.47-.27.71l.27.23c-.27.24-.81.24-.81.47a1.27,1.27,0,0,0-.27.94c0,.23.27.23.54.47a1.17,1.17,0,0,1,.54-.94v-.94S417.25,154.62,417.25,154.39Zm4.32-7.74c0-.24-.27-.24-.27-.24a3.37,3.37,0,0,0-2.43,2.82c0,.23,0,.47.27.47h.54C420.76,149.23,421.85,147.35,421.57,146.65Zm51.1-115.88-1.35.7h-.27c-1.35-.7-1.62,0-2.16.94-.27.94-1.08,1.41-1.62,2.11s-.81,1.88-1.35,2.58l-1.36,3a28,28,0,0,0-2.43,5.16l-3,5.63-.81,2.11a21.25,21.25,0,0,0-2.17,4.22,3.49,3.49,0,0,1-.81,2.12c0,.23-.54.46-.54.7l-.27-1.17c0-.94.54-1.41,1.08-2.35,1.35-3,2.44-6.33,4.06-9.38,2.7-4.93,4.05-10.56,8.38-15a1.29,1.29,0,0,0,.27-.94,1.78,1.78,0,0,0-1.08-.24c-1.08.47-1.9.71-2.44,2.11,0,.24-.81.47-1.35.71-.27.23-.81.23-.81.7-1.89,2.11-3.78,4.22-4.32,6.57-.27.23-.27.7-.55.7-1.35.71-1.35,1.88-1.62,2.58l-1.35,3.76c-.54,1.17-1.35,2.11-1.89,3.51-1.08,1.88-1.89,3.76-3,5.87l-2.43,6.1c-2.43,4-3.24,8.68-5.41,12.66a1.26,1.26,0,0,0,.27.94c.81.71.54,1.41-.81,2.11l-.81.47c-.81,2.35-1.89,4-2.7,6.1s-1.08,4.22-2.17,6.34l-.81,2.11a7,7,0,0,1-.27,2.34l-.27,2.11c.27-.23.54-.47.54-.7a3.86,3.86,0,0,1,2.17-2.81c.27,0,.54-.71.27-.94-.27-.47,0-.71.27-1.18l3-4.92a24.48,24.48,0,0,0,2.16-5.16,46.36,46.36,0,0,1,1.63-4.93c1.08-2.11,3.24-4.46,4.05-6.8.27-1.41.81-2.58,1.08-3.75,1.36-1.88,2.44-4.23,3.79-6.34,0-.23.54-.23.54-.23.27,0,.27.23.27.47a2.59,2.59,0,0,1-.27,1.4c-1.62,2.12-2.16,4.46-3.52,6.57-1.35,3-2.43,6.34-3.78,9.39-.54,1.17-.81,2.58-1.89,3.28a2.29,2.29,0,0,0-.54,1.17c-.27.47-.27,1.17-.55,1.64a16.09,16.09,0,0,1-1.35,3.76A15.06,15.06,0,0,0,441,91.76a21.19,21.19,0,0,0-1.35,2.58,24,24,0,0,0-1.35,3,3.34,3.34,0,0,1-1.08,2.34c-.27,1.18,0,1.41.81,1.18.27,0,.81.46.81.46-.27.71-.27,1.88-.81,2.59a6.47,6.47,0,0,1-3,2.81.68.68,0,0,1-.27-.47c0,.24,0,.24.27.47l-.54,1.64H434c-5.68,14.31-6.49,14.78-6.49,15.25a4.56,4.56,0,0,0,.27,2.11c0,.23.81.23,1.36.47,1.08.23,1.08.23.27.94l-.27.47c1.08.47.54.7-.28.93-.54.47-1.35.71-1.62,1.65-.27.23-.27.7-1.62.7-.27,0-1.35.7-1.35,1.17,0,1.18-1.08,1.88-1.62,2.82a9.12,9.12,0,0,0-1.63,4.22c-.27,0,0,.24,0,.47.27,0,.27,0,.27-.23.27-.71.82-.71,1.36-.24,0,.24.27.94,0,.94-.54.47-1.36.7-1.63,1.17-.54,0-1.08,0-1.08.24a1.31,1.31,0,0,0,0,1.4c.54.94.81,0,1.35,0,0-.23.55,0,.82,0,1.62,0,2.7-.7,2.7-1.64-.27-.47,0-.94.54-1.17l1.08-1.88a29,29,0,0,1,1.89-4.22c1.9-3.52,3.52-6.57,4.87-9.62,1.35-2.58,7.84-19,9.19-21.58l6.49-14.54C450.23,84,452.4,80,454,75.81c1.08-3.76,3.24-7.51,4.06-11.5a2.59,2.59,0,0,1,.81-1.41c2.43-3.75,3.78-7.5,5.4-11.49l1.63-3.52c0-.47.54-1.17.54-1.87,0-1.41,0-2.35,1.62-2.82.27,0,.54-.47.54-.47-.27-1.64.54-2.58,1.62-3.75l.81-1.41,1.35-5.16A3.51,3.51,0,0,0,472.67,30.77ZM422.12,143.13l-.82,1.17h.27C421.85,144.07,421.85,143.6,422.12,143.13ZM448.34,17.4h-.54a5.19,5.19,0,0,1-5.14.47,1.85,1.85,0,0,0-1.08.23c-.27.7-1.08.47-1.89.47a10.53,10.53,0,0,0-3,.7c-1.09.47-2.17.94-3.25.24h-1.08a5.27,5.27,0,0,1-3.79,0,11.41,11.41,0,0,0-4.05,1.41.24.24,0,0,0-.27.23,1,1,0,0,0,.54.23,10.17,10.17,0,0,0,2.7,0,17.27,17.27,0,0,1,4.87,0,3.63,3.63,0,0,0,2.16-.23,9.24,9.24,0,0,1,7-.94h.54c1.62-.7,3.79-1.17,5.95-2.11C448.34,18.1,448.34,17.63,448.34,17.4Zm-23,115.41.27.23c0,.24-.27.47-.27.71l-.27-.24Zm0-3.29a1.43,1.43,0,0,0,.81.47c.27,0,.54-.23.81-.23-.27-.24-.81-.47-1.08-.94Zm.81-2.58c.27.47.81.47,1.08.94a2.64,2.64,0,0,0-.27-1.41.79.79,0,0,0-.27-.7C425.9,126,425.9,126.47,426.17,126.94Zm1.08,5.63h.27v.71c-.27,0-.27.23-.54.23v-1.88s.27,0,.27.24C427.52,132.1,427.25,132.34,427.25,132.57Zm2.71-8.44c0,.23-.27.23-.54.47,0,0-.27-.24,0-.24,0-.23,0-.23.27-.23C429.69,123.89,429.69,124.13,430,124.13Zm3-10.32-2.43,8.68c-.27,0-.27.23-.27.47C430,122.72,429.69,122.49,432.93,113.81Zm0,0,1.62-5.4h.54Zm13.52-44.57a.7.7,0,0,1-.27.47l-.27-.24a.24.24,0,0,1,.27-.23C446.18,69,446.45,69.24,446.45,69.24Zm27.31-50.67c.81-.7,0-.94-.54-1.17-1.36-.47-.55-1.41-.82-2.11,0-.47.55-.71,1.09-.47a3.35,3.35,0,0,1,.81.93.8.8,0,0,0,.27.71h.27l-.54-.71c.27-.46-.81-1.64,1.08-1.17,0,.24.27,0,.54-.23s.27-.71.54-.94c0-.24.54-.24.54-.47l-1.08-.23c-1.08.7-2.16.46-3.52.23-.27,0-.81.23-.81.47-.54,1.17-.54,1.17-1.89.47-.81-.47-.81-.24-1.08.23l-.54,1.18c-.27.46-.81.7-1.35,1.17a1.49,1.49,0,0,1-.81-.47c1.35-1.41-.55-1.17-.82-1.41-.54-.47-.81-.23-.81.24,0,1.64-.54,1.87-2.16,1.4-.54,0-1.08-.23-1.35,0-.54.47-1.08,0-1.89-.23-.54-.47-.81-1.41-1.9-.7-.54.46-1.08-.71-1.89,0-1.08-.94-2.43-.24-3.78-.24v.7c.81,0,.81.94,1.62.71a2.47,2.47,0,0,1,1.62.7s-.27.71-.54.71c-.27.23-.81,0-1.08.23,0-.23.27-.47.27-.7v-.47c-.27,0-.54,0-.54.23a4.93,4.93,0,0,1-3,1.41c-1.08,0-.54.94-.81,1.17-.27.94.54.71.81.71a3.88,3.88,0,0,0,1.63-.24c.27,0,.27-.23.54-.47,0-.23-.27-.23-.54-.23-.55,0-.82-.24-1.36-.24.54,0,1.08-.23,1.36-.23,1.62-.24,3-.24,4.05-.47a.78.78,0,0,1,.27.47c-1.08-.24-.81,1.88-2.43,1.41,0,0-.27.47-.54.47a1.11,1.11,0,0,0,.81.23h2.7c3,.23,5.68-.47,8.65-.7l1.09-.71c0-.23.54-.47.81-.7,0-.24.27-.24.54-.24H467s-.27,0-.27.24l-.81-.47c-.27-.23-.27-.47-.55-.47.28,0,.55,0,.55-.23.27,0,.27-.24.54-.24A3.21,3.21,0,0,1,470,17.4a3.52,3.52,0,0,1,1.89,1.4C472.67,19.74,473.22,18.8,473.76,18.57Zm-22.44,2.81a.66.66,0,0,1-.28-.46,6.31,6.31,0,0,1-1.62.46s0,.47.27.47A11.43,11.43,0,0,0,451.32,21.38Zm1.08,34a.79.79,0,0,1,.27.7,19.11,19.11,0,0,1-.54,1.88l-.81.7a.79.79,0,0,1-.27-.7,6.7,6.7,0,0,1,.81-2.11A.54.54,0,0,1,452.4,55.4Zm2.7-40.11v.23a1.87,1.87,0,0,1,.27,1.17l-.54-.47C454.29,15.52,454.56,15.29,455.1,15.29ZM456.45,66a.81.81,0,0,1,.27.47,1,1,0,0,1-.54.24v-.47A.25.25,0,0,1,456.45,66Zm2.44-51.37,1.35.71.81-.71a3,3,0,0,1-.81-.23C459.7,14.35,459.43,14.58,458.89,14.58ZM462.67,19a1.43,1.43,0,0,1,.81.47,1.3,1.3,0,0,0-.81.23l-.27-.23Zm107.07-7-1.08-.23c-2.17.23-3.79.47-5.95-.24a2.74,2.74,0,0,0-2.17.71,1.41,1.41,0,0,1-1.35,0c-1.62-.47-3.24-.94-4.59-.24-2.44.71-4.6,0-6.49,1.17a1.85,1.85,0,0,1-1.08-.23,17.94,17.94,0,0,0-3.52,0,8.26,8.26,0,0,1-4.86-1.17.93.93,0,0,1-.28-1.64,1.48,1.48,0,0,0,.82-.47h-1.9c-1.08,0-1.62.23-1.08,1.17.54.23,0,.47-.27.47a4,4,0,0,1-1.62.23.68.68,0,0,0,.27-.47c.27-.7.54-1.4-1.08-.93,0,0-.54-.24-.54-.47a.68.68,0,0,1,.27-.47,3.58,3.58,0,0,1,2.7-.71c.27.24.27,0,.54-.23a.25.25,0,0,1-.27-.24,46.8,46.8,0,0,0-5.68,0c-3.51.24-6.21.71-9.46.94-.54,0-1.08.24-1.08.47,0,.71-1.08.71-1.89.94a23.9,23.9,0,0,1-4.33.7c0,.94-.81,1.88-1.62.94a3.24,3.24,0,0,0-1.89-.47,12.56,12.56,0,0,0-1.63-.47c-.54-1.4-1.35-.93-2.43-.93-.27,0-.81.46-.81.7.54.7-.27.7-.81.94-.27,0-.27,0-.54.23a.81.81,0,0,1,.27.47,4.26,4.26,0,0,0,3,0l1.08.24-.54.7c-.54.7-1.62,1.17-2.16,1.88A1.72,1.72,0,0,1,504,16c-3-.47-5.41-.94-8.11.47a3.84,3.84,0,0,1-1.63,0h-1.62a1.68,1.68,0,0,1-2.16-.94c-.27-.94-1.08-.7-1.89-.7-.54.7-.54,1.4-1.09,1.4-1.62.24-3,.71-4.59.47a5.22,5.22,0,0,0-1.89,0,9.83,9.83,0,0,1-3.52.47,3.24,3.24,0,0,0-2.16.24c0,.7-.54,1.17-1.35,1.87-.54.24,0,1.18.81,1.18a7.91,7.91,0,0,0,1.89-.47c1.35-.47,3.51.23,5.14-.94,0-.24.81-.24,1.08,0a1.66,1.66,0,0,0,2.43-.24c.81-.46.54.24.54.71,3-.24,6.49-.47,9.47-.47a35.73,35.73,0,0,0,10.27-1.88,3.37,3.37,0,0,1,1.62-.23c.54,0,1.08.23,1.89.23a33,33,0,0,1,4.87.24,17.71,17.71,0,0,1,1.89.23,25.76,25.76,0,0,1,9.47-.7,20,20,0,0,0,3.78-.24,47.12,47.12,0,0,1,5.14-.7c2.7,0,4.87.23,7.57.23,1.89,0,3.78-.7,6-.47,2.16.47,4,0,6.49-.23,3-.23,6.21-.7,9.46-.94.81,0,1.08-.47,1.89-.94.27-.23,1.35.24,2.17.24a2,2,0,0,0,1.62-.71C569.74,12.94,569.74,12.47,569.74,12Zm-91.39,1.17.81-.46a1,1,0,0,1-.54-.24c-.27.24-.27.24-.27.47Zm1.89.47a9.07,9.07,0,0,0,.28,1.18,1.78,1.78,0,0,0,1.08-.24h.54c-.27-.23-.27-.7-.81-.94Zm1.9-1.4c0,.23.27.23.27.47a.25.25,0,0,0,.27-.24V12Zm0,3.51c0,.24.27.24.27.47l.27-.47v-.23Zm2.43-2.34c0,.23,0,.7.27.7a2.23,2.23,0,0,0,1.35.24c.27-.24.27-.47.27-.94A1.24,1.24,0,0,0,484.57,13.41Zm2.16,0c.27,0,.55.23.81.23l1.09.94c.81-.7,2.16-.7,3.24-.94a5.73,5.73,0,0,0,2.16-.7v-.47c0-.23-.27-.23-.27-.23a10.77,10.77,0,0,1-5.94.47C487.54,12.47,487,12.94,486.73,13.41Zm4.87-2.11,1.08.23c.27,0,.54-.23.81-.23a1.07,1.07,0,0,0-.81-.24Zm2.7.47c.28.94,1.09,1.17,2.17.94a5.7,5.7,0,0,0,1.89-.47,1.5,1.5,0,0,0,1.08-.47l1.35-.71-1.62-.47c-.27,0-.54.24-.81.24H496.2C495.39,11.06,494.3,10.59,494.3,11.77Zm7.3-.94a1.13,1.13,0,0,0,.82.23h.81l-.81-.7Zm9.47,2.34h-.54l-.27-.46.27.23C510.8,12.94,510.8,12.94,511.07,13.17Zm-.27-3.28c.27.24.27.47.54.47a1.43,1.43,0,0,0,.81-.47c-.27,0-.27-.23-.54-.23S511.07,9.89,510.8,9.89Zm17.3-.7A23,23,0,0,1,532.16,9v1.64c0,.47-.54.47-.54.94,0,1.64,0,1.64-1.63,1.64a63.63,63.63,0,0,1-6.49,1.18c-.54.23-1.08,0-1.62,0s-1.08-.24-1.62,0c-.54.47-1.08.23-2.16.23a11.83,11.83,0,0,0-4.06.24H513l-1.62-.24c-.54-.23-.81-.7.27-.94a10.59,10.59,0,0,0,3-1.17c1.08-.47,1.62-.94,2.71.24a1.2,1.2,0,0,0,1.89-.24c1.08-2.81,3.78-2.81,6.76-3.05a1.49,1.49,0,0,1,.81.47c-.27,0-.27,0-.81.24l-1.62.7c-.28,0,0,.23,0,.7.54,0,1.08-.23,1.62-.23l1.35.23a4.68,4.68,0,0,0,1.62-.7c.54-.7-.54-.7-.81-.94S528.1,9.19,528.1,9.19ZM530,10.36l.27.23a1,1,0,0,1,.54-.23c0-.23-.27-.23-.27-.23C530.26,10.13,530.26,10.13,530,10.36Zm3.79,2.11c.27-.47.27-.7.54-.94C534.32,11.77,534.05,12,533.78,12.47Zm5.68-4.22c.27,0,.54.23.81.23.27-.23.81-.23,1.35-.47a.91.91,0,0,0-.54-.23A4.15,4.15,0,0,0,539.46,8.25Zm4.32-.47c.27.23.27.47.54.47a4,4,0,0,0,1.63.23c.27,0,.27.24.54.47.27.71.27.71,1.08.24C548.65,8,550,8,551.89,8l.81.24,3.52-.71c.54-.23,1.08-.23,1.89-.46h-4.05c-3.25.23-6.49.23-9.47.46C544.32,7.54,544.05,7.78,543.78,7.78ZM555.14,24l-.27-.47c-.27.47-.54.47-.81.7h.27C554.87,24.2,554.87,24.2,555.14,24Zm18.92-12a4,4,0,0,0-1.08-.94l-.54.47a4.6,4.6,0,0,0,1.35.94A.78.78,0,0,0,574.06,12Z"/></g></g></svg>